<?xml version="1.0"?>
<svg xmlns="http://www.w3.org/2000/svg" id="Layer_1" data-name="Layer 1" viewBox="0 0 64 64"><title>Dusk Part 4</title><rect x="5" y="7" width="54" height="50" rx="2" ry="2" style="fill:#cda1a7;"/><path d="M9,52H55a4,4,0,0,1,4,4v0a1,1,0,0,1-1,1H6a1,1,0,0,1-1-1v0a4,4,0,0,1,4-4Z" style="fill:#c4939c;"/><path d="M57,6H7A3,3,0,0,0,4,9V55a3,3,0,0,0,3,3H57a3,3,0,0,0,3-3V9A3,3,0,0,0,57,6Zm1,49a1,1,0,0,1-1,1H7a1,1,0,0,1-1-1V9A1,1,0,0,1,7,8H57a1,1,0,0,1,1,1Z" style="fill:#8d6c9f;"/><path d="M14,50a1,1,0,0,0-1,1v2a1,1,0,0,0,2,0V51A1,1,0,0,0,14,50Z" style="fill:#8d6c9f;"/><path d="M9,50a1,1,0,0,0-1,1v2a1,1,0,0,0,2,0V51A1,1,0,0,0,9,50Z" style="fill:#8d6c9f;"/><path d="M29,50a1,1,0,0,0-1,1v2a1,1,0,0,0,2,0V51A1,1,0,0,0,29,50Z" style="fill:#8d6c9f;"/><path d="M34,50a1,1,0,0,0-1,1v2a1,1,0,0,0,2,0V51A1,1,0,0,0,34,50Z" style="fill:#8d6c9f;"/><path d="M39,50a1,1,0,0,0-1,1v2a1,1,0,0,0,2,0V51A1,1,0,0,0,39,50Z" style="fill:#8d6c9f;"/><path d="M44,50a1,1,0,0,0-1,1v2a1,1,0,0,0,2,0V51A1,1,0,0,0,44,50Z" style="fill:#8d6c9f;"/><path d="M49,50a1,1,0,0,0-1,1v2a1,1,0,0,0,2,0V51A1,1,0,0,0,49,50Z" style="fill:#8d6c9f;"/><path d="M54,50a1,1,0,0,0-1,1v2a1,1,0,0,0,2,0V51A1,1,0,0,0,54,50Z" style="fill:#8d6c9f;"/><path d="M19,50a1,1,0,0,0-1,1v2a1,1,0,0,0,2,0V51A1,1,0,0,0,19,50Z" style="fill:#8d6c9f;"/><path d="M24,50a1,1,0,0,0-1,1v2a1,1,0,0,0,2,0V51A1,1,0,0,0,24,50Z" style="fill:#8d6c9f;"/><path d="M41,22H17.41l5.29-5.29a1,1,0,0,0-1.41-1.41l-7,7a1,1,0,0,0,0,1.42l7,7a1,1,0,0,0,1.41-1.41L17.41,24H41a7,7,0,0,1,0,14H33a1,1,0,0,0,0,2h8a9,9,0,0,0,0-18Z" style="fill:#faefde;"/><path d="M29,38H25a1,1,0,0,0,0,2h4a1,1,0,0,0,0-2Z" style="fill:#faefde;"/></svg>
